# xmcd
#
# Track frame offsets: 
#        150
#        16512
#        28836
#        46450
#        62133
#        84092
#        100042
#        116143
#        146289
#        163060
#
# Disc length: 2376 seconds
#
# Revision: 0
# Processed by: cddbd v1.5.2PL0 Copyright (c) Steve Scherf et al.
# Submitted via: ExactAudioCopy v0.95b4
#
DISCID=7509460a
DTITLE=Group Inerane - Guitars from Agadez: Music of Niger
DYEAR=2008
DGENRE=African
TTITLE0=Kuni Majagani
TTITLE1=Awal September
TTITLE2=Ano Nagarus
TTITLE3=Tenerte
TTITLE4=Nadan al Kazawnin
TTITLE5=Telilite
TTITLE6=Tenere Etran
TTITLE7=Ikab Kabau
TTITLE8=Ashal Wali Tigeli
TTITLE9=Kamu Talyat
EXTD=
EXTT0=
EXTT1=
EXTT2=
EXTT3=
EXTT4=
EXTT5=
EXTT6=
EXTT7=
EXTT8=
EXTT9=
PLAYORDER=
